<svg version="1.1" xmlns="http://www.w3.org/2000/svg" xmlns:xlink="http://www.w3.org/1999/xlink" style="display: none">
    <symbol viewBox="0 0 16 16" fill="none" id="home">
        <path fill-rule="evenodd" clip-rule="evenodd" d="M9.43889 0.580881L15.3665 5.4303L15.397 5.46388C15.4893 5.56535 15.6306 5.72702 15.7503 5.91988C15.8645 6.10394 16 6.38068 16 6.70499V14.7678C16 15.447 15.4503 16 14.7692 16H10.9293C10.4195 16 10.0062 15.5867 10.0062 15.0769V12.1809C10.0062 11.0737 9.11126 10.1788 8.01034 10.1788C6.90948 10.1788 6.01446 11.0737 6.01446 12.1809V15.0769C6.01446 15.5867 5.60123 16 5.09141 16H1.23077C0.549649 16 0 15.447 0 14.7678V6.61077C0 6.20929 0.223378 5.88554 0.350683 5.7248C0.424917 5.63108 0.49768 5.55471 0.551575 5.50176C0.578892 5.47494 0.60232 5.45321 0.619938 5.43732C0.628769 5.42935 0.636209 5.42279 0.642031 5.41774L0.649545 5.41126L0.652351 5.40886L0.654018 5.40745C0.654018 5.40745 0.654499 5.40705 1.05077 5.87785L0.654499 5.40705L0.660628 5.40189L6.5408 0.582259C7.35089 -0.193551 8.62806 -0.194161 9.43889 0.580881ZM1.44767 6.34825L1.44418 6.35132C1.43799 6.35692 1.4274 6.36671 1.4139 6.37994C1.38616 6.4072 1.35008 6.44529 1.31547 6.48898C1.27979 6.53403 1.25415 6.5744 1.23922 6.60578C1.23484 6.61502 1.23223 6.62166 1.23077 6.62585V14.7678L1.23081 14.7687L1.2312 14.7692H4.78372V12.1809C4.78372 10.3968 6.22695 8.948 8.01034 8.948C9.79379 8.948 11.237 10.3968 11.237 12.1809V14.7692H14.7688L14.7692 14.7678V6.70499C14.7692 6.70702 14.7697 6.7072 14.7692 6.70499C14.7671 6.69612 14.7562 6.652 14.7045 6.56874C14.6528 6.48548 14.5849 6.40228 14.5157 6.32443L8.61785 1.49935L8.59778 1.47963C8.26019 1.14759 7.72006 1.14785 7.38277 1.48021L7.36271 1.49996L1.44767 6.34825Z" fill="currentColor"/>
    </symbol>
    <symbol viewBox="0 0 16 17" fill="none" id="clock">
        <path d="M7.99998 15.7907C11.9936 15.7907 15.2533 12.531 15.2533 8.53739C15.2533 4.54379 11.9936 1.28406 7.99998 1.28406C4.00638 1.28406 0.746643 4.54379 0.746643 8.53739C0.746643 12.531 4.00638 15.7907 7.99998 15.7907ZM7.99998 1.96672C11.6181 1.96672 14.5706 4.91923 14.5706 8.53739C14.5706 12.1555 11.618 15.1081 7.99998 15.1081C4.38193 15.1081 1.42931 12.1556 1.42931 8.53739C1.42931 4.91926 4.38193 1.96672 7.99998 1.96672Z" fill="currentColor"/>
        <path d="M8.34129 8.53733V3.75867H7.65869V8.196H4.75739V8.87873H8.00005L8.34129 8.53733Z" fill="currentColor"/>
    </symbol>
    <symbol viewBox="0 0 16 15" fill="none" id="telephone">
        <path d="M15.0751 11.3377C14.8269 10.9327 14.4417 10.4609 13.9891 10.009C13.6616 9.68146 12.5372 8.61355 11.8143 8.61355C11.5823 8.61355 11.4351 8.71271 11.3527 8.79504L10.39 9.75718C10.3738 9.77341 10.3221 9.79204 10.2289 9.79204C9.69467 9.79204 8.56186 9.20069 7.43025 8.06968C5.92123 6.56007 5.55825 5.29444 5.74275 5.10995L6.70429 4.14781C6.78722 4.06488 6.88638 3.91764 6.88638 3.68627C6.88698 2.96271 5.81847 1.83831 5.49095 1.51079C5.16402 1.18327 4.04022 0.115356 3.31607 0.115356C3.0847 0.115356 2.93746 0.213914 2.85453 0.296847L0.929648 2.22173C0.361138 2.78964 0.56847 3.90081 1.54623 5.52401C2.39479 6.93266 3.73794 8.58411 5.32688 10.173C8.14539 12.9916 10.9994 14.8852 12.4284 14.8846C12.7842 14.8846 13.0697 14.7788 13.2782 14.5703L15.2031 12.6454C15.6196 12.2289 15.2097 11.5583 15.0751 11.3377ZM12.6256 13.9176C12.6039 13.9387 12.5414 13.9615 12.4284 13.9615C11.4555 13.9615 8.86474 12.405 5.97953 9.5204C4.44167 7.98254 3.1484 6.3942 2.3371 5.04745C1.42304 3.53062 1.50897 2.94769 1.58229 2.87437L3.39419 1.06247C3.63037 1.15382 4.17784 1.50238 4.8383 2.16343C5.49876 2.82449 5.84792 3.37137 5.93926 3.60754L5.0901 4.4573C4.20489 5.34252 5.34431 7.28843 6.7776 8.72233C8.00717 9.9519 9.32989 10.7151 10.2289 10.7151C10.649 10.7151 10.9032 10.5493 11.0426 10.4098L11.8924 9.56067C12.1286 9.65202 12.6754 10.0012 13.3365 10.6616C13.997 11.3221 14.3461 11.8696 14.4375 12.1057L12.6256 13.9176Z" fill="currentColor"/>
    </symbol>
    <symbol viewBox="0 0 246 36" fill="none" id="logo">
        <path d="M21.9185 19.7614V0.297163H28.9942V35.3626H28.5154L7.07564 15.5516V34.9663H0V0H0.478803L21.9185 19.7614Z" fill="#385FDF" />
        <path d="M34.8608 28.6764H59.5989V34.9663H34.8608V28.6764ZM57.6305 14.5115V20.8015H34.8608V14.5115H57.6305ZM59.2797 0.297163V6.63667H34.8608V0.297163H59.2797Z" fill="#385FDF" />
        <path d="M89.5561 0.297163H97.4298L83.9701 34.9663H76.7348V34.9168L89.5561 0.297163ZM71.1488 0.297163L77.1604 16.5421L73.4364 26.5467L63.2751 0.297163H71.1488Z" fill="#385FDF" />
        <path d="M114.055 0.297163L127.674 34.9663H119.641L110.437 10.2026L101.234 34.9663H93.2003L106.82 0.297163H114.055Z" fill="#385FDF" />
        <path d="M163.314 14.6553H169.769V30.4874C167.197 33.9444 160.894 36.4495 154.54 35.7981C144.455 34.746 138 27.9823 138 17.9119C138 7.84151 144.555 0.57679 154.792 0.0256745C160.339 -0.224833 165.483 1.37842 168.71 3.93359L165.231 8.79343C162.457 7.24029 158.826 6.23826 154.943 6.58897C149.195 6.78937 144.858 11.4989 144.858 17.9119C144.858 24.3249 148.741 28.2829 155.095 29.1346C158.574 29.5855 161.499 28.9342 163.314 27.5815V14.6553Z" fill="black" />
        <path d="M188.217 14.3046C195.075 16.3588 200.32 18.7636 200.32 25.2267C200.32 31.0385 196.235 36.0987 187.108 35.9985C186.251 35.9985 185.393 35.9484 184.536 35.8482L186.805 29.2348C190.688 29.0845 193.159 27.5314 193.159 25.5273C193.159 23.373 191.596 22.5212 185.696 20.7677C177.527 18.3127 174.249 15.3066 174.249 10.1462C174.249 5.53684 177.628 0.0256745 186.705 0.0256745C188.217 0.0256745 189.68 0.226081 191.092 0.626893L186.957 6.63907C186.856 6.63907 186.705 6.63907 186.604 6.63907C183.326 6.63907 181.359 7.94171 181.359 9.89567C181.359 11.549 182.771 12.6512 188.217 14.3046ZM173.291 27.2809L179.443 24.9261C179.695 25.9281 180.3 27.0304 181.864 27.9823L179.544 34.3452C176.064 32.7419 173.846 30.1868 173.291 27.2809Z" fill="black" />
        <path d="M238.546 0.0256745H239V35.3973H232.293V16.459L221.855 27.5314H221.401L211.063 16.459V35.3973H204.357V0.0256745H204.76L221.653 18.5632L238.546 0.0256745Z" fill="black" />
    </symbol>
    <symbol viewBox="0 0 26 26" fill="none" id="person">
        <path d="M19.2888 13.1462C19.213 13.071 19.1232 13.0114 19.0244 12.9709C18.9257 12.9304 18.8199 12.9098 18.7131 12.9102C18.6064 12.9105 18.5007 12.9319 18.4022 12.9731C18.3037 13.0143 18.2143 13.0745 18.1391 13.1503C18.0639 13.2261 18.0043 13.3159 17.9638 13.4147C17.9233 13.5134 17.9027 13.6192 17.903 13.726C17.9034 13.8327 17.9248 13.9384 17.966 14.0369C18.0072 14.1354 18.0674 14.2248 18.1432 14.3C18.8307 14.9802 19.3764 15.7901 19.7488 16.6827C20.1212 17.5752 20.3128 18.5328 20.3125 19.5C20.3125 20.4912 17.4607 21.9375 13.0001 21.9375C8.53943 21.9375 5.68755 20.4912 5.68755 19.5C5.68626 18.5392 5.87432 17.5876 6.24098 16.6995C6.60763 15.8115 7.1457 15.0044 7.82443 14.3244C7.97575 14.1721 8.06069 13.9662 8.06069 13.7515C8.06069 13.5369 7.97575 13.331 7.82443 13.1787C7.67219 13.0274 7.46626 12.9425 7.25161 12.9425C7.03696 12.9425 6.83103 13.0274 6.6788 13.1787C5.84607 14.0068 5.18602 14.992 4.73692 16.0771C4.28781 17.1622 4.05859 18.3256 4.06255 19.5C4.06255 22.1406 8.66943 23.5625 13.0001 23.5625C17.3307 23.5625 21.9375 22.1406 21.9375 19.5C21.9407 18.318 21.708 17.1473 21.2532 16.0563C20.7984 14.9653 20.1306 13.976 19.2888 13.1462Z" fill="currentColor" />
        <path d="M13 13.8125C14.1249 13.8125 15.2245 13.4789 16.1598 12.854C17.0951 12.229 17.8241 11.3408 18.2546 10.3015C18.685 9.26226 18.7977 8.11869 18.5782 7.01543C18.3588 5.91216 17.8171 4.89874 17.0217 4.10333C16.2263 3.30792 15.2128 2.76624 14.1096 2.54679C13.0063 2.32733 11.8627 2.43996 10.8235 2.87044C9.78423 3.30091 8.89597 4.02989 8.27102 4.9652C7.64607 5.9005 7.3125 7.00012 7.3125 8.125C7.3125 9.63342 7.91172 11.0801 8.97833 12.1467C10.0449 13.2133 11.4916 13.8125 13 13.8125ZM13 4.0625C13.8035 4.0625 14.5889 4.30076 15.257 4.74716C15.9251 5.19355 16.4458 5.82803 16.7533 6.57035C17.0607 7.31268 17.1412 8.12951 16.9844 8.91756C16.8277 9.7056 16.4408 10.4295 15.8726 10.9976C15.3045 11.5658 14.5806 11.9527 13.7926 12.1094C13.0045 12.2662 12.1877 12.1857 11.4453 11.8783C10.703 11.5708 10.0685 11.0501 9.62215 10.382C9.17576 9.71393 8.9375 8.92849 8.9375 8.125C8.9375 7.04756 9.36551 6.01425 10.1274 5.25238C10.8892 4.49051 11.9226 4.0625 13 4.0625Z" fill="currentColor" />
    </symbol>
    <symbol height="26" viewBox="0 0 26 26" fill="none" id="compare">
        <path d="M3.25 7.58337H5.17817C7.75389 7.58337 9.04176 7.58337 10.0353 8.22838C10.1782 8.32113 10.315 8.42291 10.4448 8.5331C11.3481 9.29939 11.7182 10.5329 12.4583 13V13C13.1985 15.4671 13.5685 16.7007 14.4718 17.467C14.6017 17.5772 14.7385 17.6789 14.8814 17.7717C15.8749 18.4167 17.1628 18.4167 19.7385 18.4167H22.75M22.75 18.4167L19.5 15.1667M22.75 18.4167L19.5 21.6667" stroke="currentColor" stroke-width="2"/>
        <path fill-rule="evenodd" clip-rule="evenodd" d="M23.4571 6.87622L20.2071 3.62622L18.7929 5.04043L20.3358 6.58333H19.7385L19.6846 6.58333C18.4425 6.58331 17.4327 6.58329 16.6122 6.66942C15.7579 6.75909 15.0149 6.94937 14.3369 7.38959C14.1583 7.50553 13.9873 7.63275 13.8249 7.77048C13.6567 7.9132 13.5049 8.06588 13.3664 8.22857C13.5391 8.53419 13.687 8.84804 13.8193 9.1643C13.9919 9.57715 14.1549 10.0385 14.317 10.5373C14.3202 10.5297 14.3233 10.5221 14.3265 10.5145C14.591 9.88191 14.8319 9.53892 15.1187 9.29562C15.2162 9.21298 15.3187 9.13665 15.4259 9.06708C15.7413 8.8623 16.1391 8.73007 16.821 8.65849C17.5249 8.5846 18.4296 8.58333 19.7385 8.58333H20.3358L18.7929 10.1262L20.2071 11.5404L23.4571 8.29043L24.1642 7.58333L23.4571 6.87622ZM11.5503 17.7714C11.3775 17.4658 11.2296 17.1519 11.0974 16.8357C10.9248 16.4228 10.7617 15.9615 10.5997 15.4627C10.5965 15.4703 10.5933 15.4779 10.5902 15.4855C10.3257 16.1181 10.0847 16.4611 9.79793 16.7044C9.70052 16.787 9.59792 16.8633 9.49077 16.9329C9.17533 17.1377 8.77756 17.2699 8.09566 17.3415C7.39175 17.4154 6.4871 17.4167 5.17817 17.4167H3.25V19.4167H5.17817H5.23213H5.23216C6.47418 19.4167 7.48396 19.4167 8.30444 19.3306C9.15879 19.2409 9.90172 19.0506 10.5798 18.6104C10.7584 18.4945 10.9294 18.3672 11.0917 18.2295C11.26 18.0868 11.4118 17.9341 11.5503 17.7714Z" fill="currentColor"/>
    </symbol>
    <symbol viewBox="0 0 28 24" fill="none" id="heart">
        <g clip-path="url(#clip0_1_174)">
            <path fill-rule="evenodd" clip-rule="evenodd" d="M8.25837 2.92505C5.23565 2.92505 2.8667 5.294 2.8667 8.31672C2.8667 9.48425 3.29562 10.7349 4.06036 12.0226C4.82264 13.3062 5.88543 14.5705 7.06767 15.7462C9.43404 18.0994 12.1823 20.0028 13.6523 20.8953C13.6891 20.9176 13.7244 20.9423 13.7581 20.9692C13.9045 21.0864 14.1764 21.1499 14.5224 20.9221C15.931 19.9469 18.6505 18.0424 21.0156 15.7036C22.1999 14.5325 23.2693 13.2775 24.0377 12.002C24.8086 10.7224 25.2417 9.48055 25.2417 8.31672C25.2417 5.39127 22.7534 2.92505 19.9584 2.92505C17.7445 2.92505 15.8308 4.21765 15.0203 6.01875C14.8618 6.37087 14.5148 6.6003 14.1288 6.60817C13.7427 6.61605 13.3866 6.40096 13.2139 6.0556C12.2844 4.19654 10.446 2.92505 8.25837 2.92505ZM0.866699 8.31672C0.866699 4.18943 4.13108 0.925049 8.25837 0.925049C10.6516 0.925049 12.7182 2.03705 14.087 3.73486C15.443 2.01936 17.5908 0.925049 19.9584 0.925049C23.88 0.925049 27.2417 4.30882 27.2417 8.31672C27.2417 9.96955 26.6321 11.5714 25.7509 13.0341C24.8672 14.5007 23.6752 15.8863 22.4219 17.1257C19.9167 19.6031 17.0631 21.5958 15.6526 22.5722L15.6381 22.5821C14.7061 23.2034 13.4943 23.2769 12.5653 22.5749C10.9912 21.6142 8.13999 19.6331 5.6574 17.1643C4.40214 15.916 3.21701 14.5194 2.34074 13.0439C1.46695 11.5725 0.866699 9.96585 0.866699 8.31672Z" fill="currentColor" />
        </g>
        <defs>
            <clipPath id="clip0_1_174">
            <rect width="28" height="24" fill="currentColor" />
            </clipPath>
        </defs>
    </symbol>
    <symbol viewBox="0 0 32 29" fill="none" id="cart">
        <path d="M19.1716 7.98553C18.9139 7.98553 18.6668 8.09081 18.4845 8.27822C18.3023 8.46563 18.2 8.71981 18.2 8.98485C18.2 9.24988 18.3023 9.50406 18.4845 9.69147C18.6668 9.87888 18.9139 9.98416 19.1716 9.98416C19.4706 9.98416 19.7668 10.0448 20.0431 10.1625C20.3194 10.2802 20.5705 10.4527 20.782 10.6702C20.9934 10.8877 21.1612 11.146 21.2756 11.4302C21.3901 11.7144 21.449 12.019 21.449 12.3266V23.359C21.449 23.9803 21.2091 24.5761 20.782 25.0153C20.3549 25.4546 19.7756 25.7014 19.1716 25.7014H6.82838C6.22436 25.7014 5.64509 25.4546 5.21799 25.0153C4.79089 24.5761 4.55095 23.9803 4.55095 23.359V12.3186C4.55095 11.6973 4.79089 11.1015 5.21799 10.6622C5.64509 10.223 6.22436 9.97617 6.82838 9.97617C7.08606 9.97617 7.33319 9.87088 7.5154 9.68347C7.69761 9.49607 7.79997 9.24189 7.79997 8.97685C7.79997 8.71181 7.69761 8.45763 7.5154 8.27023C7.33319 8.08282 7.08606 7.97753 6.82838 7.97753C5.70828 7.97753 4.63395 8.43463 3.84119 9.24851C3.04843 10.0624 2.60203 11.1665 2.59998 12.3186V23.351C2.60203 24.5038 3.04818 25.6088 3.84072 26.4239C4.63325 27.2391 5.70757 27.6979 6.82838 27.7H19.1716C20.2924 27.6979 21.3667 27.2391 22.1592 26.4239C22.9518 25.6088 23.3979 24.5038 23.4 23.351V12.3186C23.3959 11.1679 22.9486 10.0658 22.156 9.25367C21.3635 8.44152 20.2903 7.98552 19.1716 7.98553ZM12.0439 7.98553C11.7862 7.98553 11.5391 8.09081 11.3569 8.27822C11.1747 8.46563 11.0723 8.71981 11.0723 8.98485C11.0723 9.24988 11.1747 9.50406 11.3569 9.69147C11.5391 9.87888 11.7862 9.98416 12.0439 9.98416H13.956C14.2137 9.98416 14.4608 9.87888 14.6431 9.69147C14.8253 9.50406 14.9276 9.24988 14.9276 8.98485C14.9276 8.71981 14.8253 8.46563 14.6431 8.27822C14.4608 8.09081 14.2137 7.98553 13.956 7.98553H12.0439ZM9.11358 11.703C9.24183 11.703 9.36881 11.6769 9.4872 11.6262C9.60559 11.5754 9.71304 11.5011 9.80337 11.4075C9.89369 11.3138 9.96509 11.2027 10.0135 11.0806C10.0618 10.9584 10.0862 10.8276 10.0852 10.6957C10.0852 8.29731 11.4221 6.2667 13.0077 6.2667C14.5934 6.2667 15.9303 8.29731 15.9303 10.6957C15.9182 10.835 15.9344 10.9753 15.978 11.1078C16.0215 11.2403 16.0914 11.362 16.1831 11.4652C16.2749 11.5684 16.3865 11.6508 16.511 11.7071C16.6354 11.7635 16.7698 11.7926 16.9058 11.7926C17.0418 11.7926 17.1762 11.7635 17.3007 11.7071C17.4251 11.6508 17.5367 11.5684 17.6285 11.4652C17.7202 11.362 17.7901 11.2403 17.8336 11.1078C17.8772 10.9753 17.8934 10.835 17.8813 10.6957C17.8813 7.1541 15.6971 4.30005 13.0077 4.30005C10.3184 4.30005 8.12643 7.18607 8.12643 10.6957C8.12538 10.8289 8.15025 10.9611 8.19959 11.0843C8.24892 11.2075 8.32172 11.3194 8.4137 11.4132C8.50568 11.5071 8.61498 11.5811 8.73517 11.6308C8.85537 11.6806 8.98403 11.7051 9.11358 11.703Z" fill="currentColor"/>
    </symbol>

    <symbol viewBox="0 0 20 20" fill="none" id="btn_square">
        <g clip-path="url(#clip0_16_2304)">
            <path d="M8.78476 0.0166016H2.97384C2.19267 0.0166016 1.44359 0.32684 0.891108 0.879297C0.33884 1.43178 0.0284119 2.18086 0.0284119 2.96203V8.77295C0.0284119 8.9293 0.0904607 9.07908 0.200993 9.18961C0.311531 9.29995 0.461307 9.36199 0.617662 9.36199H8.78492C8.94128 9.36199 9.09085 9.29994 9.20138 9.18961C9.31192 9.07908 9.37396 8.9293 9.37396 8.77295V0.605688C9.37396 0.449538 9.31192 0.299763 9.20138 0.189225C9.09085 0.0786869 8.94111 0.0166016 8.78476 0.0166016ZM8.19572 8.18386H1.20664V2.96219C1.20664 2.49354 1.39278 2.044 1.72418 1.71259C2.05558 1.38119 2.50514 1.19505 2.97378 1.19505H8.19545L8.19572 8.18386ZM8.78476 10.6261H0.618024C0.292581 10.6261 0.0287802 10.89 0.0287802 11.2154V17.0247C0.0287802 17.8059 0.339224 18.555 0.891476 19.1075C1.44396 19.6599 2.19304 19.9702 2.97421 19.9702H8.78513C8.94148 19.9702 9.09126 19.9081 9.20179 19.7976C9.31233 19.687 9.37437 19.5373 9.37437 19.3811V11.2154C9.37437 11.0591 9.31233 10.9093 9.20179 10.7988C9.09126 10.6882 8.94111 10.6261 8.78476 10.6261ZM8.19572 18.7918H2.97405C2.5054 18.7918 2.05587 18.6057 1.72445 18.2743C1.39305 17.9429 1.20691 17.4933 1.20691 17.0247V11.8042H8.196L8.19572 18.7918ZM19.3958 10.6225L11.2264 10.6223C10.9012 10.6223 10.6374 10.8861 10.6374 11.2113V19.377C10.6374 19.5333 10.6994 19.6831 10.81 19.7936C10.9203 19.9042 11.0703 19.9662 11.2264 19.9662H17.0373C17.8185 19.9662 18.5678 19.6558 19.1201 19.1035C19.6726 18.5511 19.9828 17.802 19.9828 17.0208V11.2146C19.9828 11.0583 19.9207 10.9085 19.8102 10.7979C19.6999 10.6874 19.5499 10.6254 19.3937 10.6254L19.3958 10.6225ZM18.8067 17.0214C18.8067 17.4901 18.6204 17.9394 18.289 18.2708C17.9576 18.6022 17.508 18.7884 17.0394 18.7884H11.8153V11.804H18.8043L18.8067 17.0214Z" fill="currentColor" />
            <path d="M19.9848 8.77266V2.96437C19.9848 2.18299 19.6742 1.43376 19.122 0.881284C18.5695 0.329037 17.8204 0.0187988 17.0392 0.0187988H11.2309C10.9057 0.0187988 10.6419 0.282389 10.6419 0.607833V8.77246C10.6419 9.09789 10.9057 9.3615 11.2309 9.3615H19.3956C19.5519 9.3615 19.7017 9.29945 19.8122 9.18912C19.9228 9.07858 19.9848 8.92901 19.9848 8.77266Z" fill="currentColor" />
        </g>
        <defs>
            <clipPath id="clip0_16_2304">
            <rect width="20" height="20" fill="currentColor" />
            </clipPath>
        </defs>
    </symbol>
    <symbol viewBox="0 0 20 20" fill="none" id="search">
        <path d="M19.8105 18.9119L14.6468 13.8308C15.999 12.3616 16.8298 10.4187 16.8298 8.28068C16.8292 3.7071 13.0621 0 8.41471 0C3.76737 0 0.000244141 3.7071 0.000244141 8.28068C0.000244141 12.8543 3.76737 16.5614 8.41471 16.5614C10.4227 16.5614 12.2644 15.8668 13.711 14.7122L18.8947 19.8134C19.1473 20.0622 19.5573 20.0622 19.8099 19.8134C20.0631 19.5646 20.0631 19.1607 19.8105 18.9119ZM8.41471 15.2873C4.48256 15.2873 1.29493 12.1504 1.29493 8.28068C1.29493 4.41101 4.48256 1.27403 8.41471 1.27403C12.3469 1.27403 15.5345 4.41101 15.5345 8.28068C15.5345 12.1504 12.3469 15.2873 8.41471 15.2873Z" fill="#385FDF" />
    </symbol>
    <symbol viewBox="0 0 33 32" fill="none" id="smartphone">
        <path d="M23.3563 0H9.64375C7.54375 0 5.83125 1.70625 5.83125 3.8125V28.1875C5.83125 30.2875 7.5375 32 9.64375 32H23.3563C25.4563 32 27.1688 30.2938 27.1688 28.1875V3.8125C27.1688 1.70625 25.4563 0 23.3563 0ZM21.0375 1.54375C20.85 2.6125 19.9125 3.425 18.7875 3.425H14.2125C13.0875 3.425 12.15 2.6125 11.9625 1.54375H21.0375ZM25.6438 28.1875C25.6438 29.45 24.6188 30.475 23.3563 30.475H9.64375C8.38125 30.475 7.35625 29.45 7.35625 28.1875V3.8125C7.35625 2.55 8.38125 1.525 9.64375 1.525H10.425C10.6188 3.45 12.2438 4.95625 14.2125 4.95625H18.7875C20.7625 4.95625 22.3875 3.45 22.575 1.525H23.3563C24.6188 1.525 25.6438 2.55 25.6438 3.8125V28.1875Z" fill="currentColor" />
    </symbol>
    <symbol viewBox="0 0 29 34" fill="none" id="tablet">
        <g clip-path="url(#clip0_0_44)">
            <path d="M24.6868 2.1388C25.1458 2.13909 25.586 2.31595 25.9107 2.63057C26.2354 2.9452 26.4181 3.37189 26.4187 3.81698V30.1866C26.4181 30.6317 26.2354 31.0583 25.9107 31.373C25.586 31.6876 25.1458 31.8645 24.6868 31.8647H4.56323C4.10417 31.8645 3.664 31.6876 3.3393 31.373C3.01459 31.0583 2.83187 30.6317 2.83129 30.1866V3.82126C2.83187 3.37617 3.01459 2.94949 3.3393 2.63487C3.664 2.32024 4.10417 2.14336 4.56323 2.14308H24.6868M24.6868 0.0039064H4.56323C4.04611 0.00376591 3.53404 0.102407 3.05624 0.294184C2.57844 0.485961 2.14429 0.767118 1.77857 1.12161C1.41286 1.47609 1.12275 1.89696 0.924823 2.36018C0.726895 2.82339 0.625 3.31987 0.625 3.82126V30.1866C0.625 30.688 0.726895 31.1844 0.924823 31.6476C1.12275 32.1109 1.41286 32.5317 1.77857 32.8862C2.14429 33.2407 2.57844 33.5219 3.05624 33.7136C3.53404 33.9054 4.04611 34.0041 4.56323 34.0039H24.6868C25.2039 34.0041 25.716 33.9054 26.1938 33.7136C26.6716 33.5219 27.1057 33.2407 27.4714 32.8862C27.8372 32.5317 28.1273 32.1109 28.3252 31.6476C28.5231 31.1844 28.625 30.688 28.625 30.1866V3.82126C28.625 3.31987 28.5231 2.82339 28.3252 2.36018C28.1273 1.89696 27.8372 1.47609 27.4714 1.12161C27.1057 0.767118 26.6716 0.485961 26.1938 0.294184C25.716 0.102407 25.2039 0.00376591 24.6868 0.0039064Z" fill="currentColor" />
            <path d="M14.625 29.9217C15.322 29.9217 15.887 29.3739 15.887 28.6981C15.887 28.0223 15.322 27.4745 14.625 27.4745C13.928 27.4745 13.363 28.0223 13.363 28.6981C13.363 29.3739 13.928 29.9217 14.625 29.9217Z" fill="currentColor" />
            <path d="M14.6249 27.4745C14.333 27.4745 14.0501 27.5727 13.8244 27.7523C13.5987 27.9319 13.4443 28.1818 13.3873 28.4595C13.3304 28.7372 13.3746 29.0254 13.5122 29.275C13.6499 29.5247 13.8726 29.7203 14.1423 29.8286C14.4121 29.9369 14.7122 29.9512 14.9916 29.869C15.2709 29.7868 15.5123 29.6132 15.6745 29.3778C15.8367 29.1424 15.9097 28.8598 15.8811 28.578C15.8524 28.2963 15.7239 28.0329 15.5174 27.8328C15.4003 27.719 15.2612 27.6288 15.108 27.5673C14.9549 27.5058 14.7907 27.4743 14.6249 27.4745Z" fill="currentColor" />
        </g>
        <defs>
            <clipPath id="clip0_0_44">
            <rect width="28" height="34" fill="white" transform="translate(0.625)" />
            </clipPath>
        </defs>
    </symbol>
    <symbol viewBox="0 0 35 34" fill="none" id="smart-watch">
        <path d="M27.45 13.1372C27.4358 12.9649 27.3891 12.7973 27.3128 12.6446C27.2365 12.4919 27.1322 12.3572 27.006 12.2484C26.8798 12.1396 26.7343 12.0591 26.5782 12.0115C26.4222 11.964 26.2587 11.9504 26.0977 11.9717H25.2345C25.1961 11.096 24.9383 10.2472 24.488 9.5136C24.0376 8.78003 23.4111 8.18845 22.6737 7.80037C22.468 6.22801 22.1701 4.67093 21.7817 3.13829C21.5469 2.68199 21.1947 2.30673 20.7665 2.05676C20.3382 1.80678 19.8519 1.69251 19.3648 1.7274H13.2362C12.804 1.68192 12.3681 1.75045 11.9666 1.92696C11.5652 2.10347 11.2107 2.38254 10.9343 2.73956C10.2589 4.35536 9.82217 6.07284 9.63955 7.83104C8.86713 8.22362 8.21434 8.84062 7.75624 9.6111C7.29814 10.3816 7.05334 11.2742 7.04999 12.1864V21.7866C7.05393 22.7065 7.30187 23.6065 7.76517 24.3825C8.22848 25.1586 8.88825 25.7792 9.66832 26.1726C9.66832 26.1726 9.66832 26.326 9.66832 26.3873C9.85165 28.1553 10.2883 29.8827 10.9631 31.5095C11.2025 31.8273 11.5043 32.0853 11.8473 32.2655C12.1903 32.4457 12.5662 32.5436 12.9484 32.5523H19.3073C19.8284 32.5948 20.3498 32.4718 20.8055 32.1989C21.2612 31.926 21.6309 31.5153 21.868 31.0187C22.127 30.2519 22.6161 26.9394 22.7312 26.2646C23.5059 25.8669 24.1598 25.2444 24.6178 24.4686C25.0758 23.6929 25.3194 22.7952 25.3208 21.8786V18.198H26.0977C26.4161 18.1984 26.7223 18.0679 26.9528 17.8337C27.1832 17.5994 27.3201 17.2795 27.3349 16.9405L27.45 13.1372ZM12.114 3.93575C12.2418 3.78105 12.4026 3.66131 12.5829 3.58659C12.7631 3.51187 12.9576 3.48435 13.1498 3.50635H19.4223C19.6095 3.47739 19.8005 3.50519 19.9735 3.58655C20.1465 3.66792 20.2945 3.79956 20.4006 3.96642C20.6741 5.12845 20.8854 6.30609 21.0336 7.49365H11.2796C11.4387 6.22956 11.7183 4.98605 12.114 3.7824V3.93575ZM20.3431 30.3133C20.2391 30.5184 20.0783 30.6844 19.8827 30.7886C19.687 30.8929 19.466 30.9304 19.2497 30.896H13.0635C12.8908 30.9201 12.7152 30.8961 12.5538 30.8262C12.3924 30.7563 12.2508 30.643 12.1428 30.4973C11.7014 29.2287 11.3926 27.9121 11.2221 26.5714H21.0912C20.861 28.1049 20.5733 30.0066 20.3431 30.3133ZM23.6232 21.7866C23.6232 22.6489 23.3019 23.4758 22.7299 24.0855C22.1579 24.6952 21.3822 25.0378 20.5733 25.0378H11.7112C11.3096 25.0419 10.9113 24.9606 10.5395 24.7986C10.1677 24.6367 9.82999 24.3974 9.54601 24.0947C9.26203 23.7919 9.03752 23.4319 8.8856 23.0356C8.73369 22.6393 8.65743 22.2147 8.66127 21.7866V12.1864C8.66127 11.3241 8.9826 10.4972 9.55457 9.88747C10.1265 9.27775 10.9023 8.93522 11.7112 8.93522H20.7459C21.5525 8.94321 22.3239 9.28832 22.8942 9.89631C23.4646 10.5043 23.7883 11.3266 23.7958 12.1864L23.6232 21.7866ZM25.1482 16.5724V13.5053H25.8099V16.5724H25.1482Z" fill="currentColor" />
        <path d="M16.595 10.2822H16.2049C16.0205 10.321 15.8543 10.4277 15.7348 10.584C15.6153 10.7403 15.55 10.9366 15.55 11.1391C15.55 11.3416 15.6153 11.5378 15.7348 11.6941C15.8543 11.8505 16.0205 11.9571 16.2049 11.9959H16.595C16.7795 11.9571 16.9457 11.8505 17.0652 11.6941C17.1847 11.5378 17.25 11.3416 17.25 11.1391C17.25 10.9366 17.1847 10.7403 17.0652 10.584C16.9457 10.4277 16.7795 10.321 16.595 10.2822Z" fill="currentColor" />
    </symbol>
    <symbol viewBox="0 0 34 24" fill="none" id="audio">
        <g clip-path="url(#clip0_5_457)">
            <path d="M17.2728 0.380058C16.4027 -0.0239187 15.3911 0.0783513 14.6302 0.645969L8.07743 5.52801L3.49043 5.59789C2.12973 5.61835 1.02332 6.6888 1.02332 7.98428V16.2154C1.02332 16.8648 1.29187 17.4734 1.78062 17.9251C2.26939 18.3785 2.91215 18.6206 3.59424 18.6001L8.09522 18.4876L14.6283 23.3539C15.0813 23.6914 15.622 23.8636 16.1698 23.8636C16.5422 23.8636 16.9182 23.7835 17.2709 23.6198C18.1392 23.2176 18.6799 22.3943 18.6799 21.4738V2.52602C18.6799 1.60556 18.1411 0.784043 17.2728 0.380058ZM16.5316 21.4739C16.5316 21.6597 16.4045 21.7449 16.3311 21.7807C16.2576 21.8165 16.1073 21.8574 15.9533 21.7432L9.11587 16.65C8.92609 16.5102 8.69334 16.4335 8.45344 16.4335H8.42479L3.53713 16.5562C3.42254 16.563 3.3187 16.4965 3.27932 16.459C3.23814 16.4215 3.1701 16.3397 3.1701 16.2153L3.17189 7.98417C3.17189 7.79838 3.32945 7.64667 3.5246 7.64326L8.47322 7.56656C8.70776 7.56315 8.93334 7.48644 9.11773 7.35008L15.9551 2.25685C16.1091 2.14264 16.2577 2.18355 16.3329 2.21935C16.4081 2.25344 16.5334 2.34037 16.5334 2.52616L16.5316 21.4739ZM24.7082 4.93962C24.2535 4.57826 23.5749 4.63621 23.1954 5.06917C22.8158 5.50212 22.8767 6.14816 23.3314 6.50952C25.0484 7.87486 26.0331 9.87942 26.0331 12.0068C26.0331 14.129 25.052 16.1301 23.3422 17.4954C22.8874 17.8585 22.8283 18.5028 23.2097 18.9358C23.4227 19.1761 23.7271 19.3005 24.0333 19.3005C24.2768 19.3005 24.522 19.2221 24.7225 19.0619C26.9211 17.3062 28.1815 14.734 28.1815 12.005C28.1833 9.27094 26.9158 6.69511 24.7082 4.93962ZM28.2997 1.48449C27.8306 1.14018 27.1556 1.22199 26.7922 1.66688C26.4287 2.11346 26.5147 2.75609 26.9838 3.10212C29.9038 5.25156 31.5776 8.49689 31.5776 12.0066C31.5776 15.5145 29.9037 18.7602 26.987 20.9093C26.5179 21.2553 26.432 21.8979 26.7954 22.3445C27.0067 22.6053 27.3253 22.7417 27.6458 22.7417C27.875 22.7417 28.1077 22.6718 28.3029 22.5286C31.7511 19.9888 33.7277 16.1538 33.7277 12.0083C33.7259 7.85944 31.7494 4.02415 28.2992 1.48452L28.2997 1.48449Z" fill="currentColor" />
        </g>
        <defs>
            <clipPath id="clip0_5_457">
            <rect width="33" height="24" fill="white" transform="translate(0.875)" />
            </clipPath>
        </defs>
    </symbol>
    <symbol viewBox="0 0 37 26" fill="none" id="notebook">
        <g clip-path="url(#clip0_0_51)">
            <path d="M33.9602 20.3939V1.8841C33.9602 1.39325 33.7687 0.92224 33.4279 0.575177C33.0871 0.228114 32.6246 0.0332031 32.1425 0.0332031H4.87661C4.39459 0.0332031 3.93204 0.228114 3.59122 0.575177C3.2504 0.92224 3.05899 1.39322 3.05899 1.8841V20.3939H0.332397V22.3948L0.379565 22.5373C0.423081 22.6771 1.54382 25.9469 5.78562 25.9469H31.2333C35.475 25.9469 36.5955 22.677 36.6393 22.5373L36.6865 22.3951V20.3939L33.9602 20.3939ZM4.87677 1.8841H32.1427V20.3939H22.6775L21.7686 21.3195H15.2503L14.3413 20.3939H4.87615L4.87677 1.8841ZM31.2336 24.0962H5.78589C5.08447 24.1532 4.38154 24.0103 3.75528 23.6834C3.12932 23.3565 2.60497 22.8585 2.24132 22.2452H13.5894L14.4984 23.1709H22.5216L23.4305 22.2452H34.7786C34.4156 22.8588 33.8912 23.3574 33.2653 23.6843C32.639 24.0116 31.9355 24.1541 31.234 24.0962L31.2336 24.0962Z" fill="currentColor" />
        </g>
        <defs>
            <clipPath id="clip0_0_51">
            <rect width="36.4" height="26" fill="white" transform="translate(0.299988)" />
            </clipPath>
        </defs>
    </symbol>
    <symbol viewBox="0 0 42 27" fill="none" id="game-console">
        <path d="M30.4918 0.106445C28.3156 0.106445 26.5511 0.724269 24.9962 1.26745C23.6432 1.74074 22.3659 2.18862 20.9735 2.18862C19.5811 2.18862 18.3038 1.74074 16.9508 1.26745C15.3943 0.722681 13.6313 0.106445 11.4552 0.106445C5.9328 0.106445 1.08691 8.5368 1.08691 18.1472C1.08691 20.2373 1.08691 26.6014 5.18061 26.6014C7.27791 26.6014 8.96522 25.1879 10.919 23.5504C13.461 21.419 16.3421 19.0033 20.9751 19.0033C25.6081 19.0033 28.4891 21.419 31.0311 23.5504C32.9849 25.1879 34.6722 26.6014 36.7695 26.6014C40.8632 26.6014 40.8632 20.2373 40.8632 18.1472C40.8632 8.5368 36.0173 0.106445 30.495 0.106445H30.4918ZM36.7664 24.8893C35.2841 24.8893 33.816 23.6584 32.116 22.2337C29.4889 20.0309 26.2199 17.2911 20.9735 17.2911C15.7271 17.2911 12.4565 20.0324 9.82938 22.2337C8.12945 23.6584 6.66291 24.8893 5.17903 24.8893C3.59107 24.8893 2.78526 22.6213 2.78526 18.1472C2.78526 8.95133 7.44507 1.81856 11.4536 1.81856C13.3428 1.81856 14.8929 2.36015 16.391 2.88427C17.8181 3.38297 19.2941 3.90074 20.9719 3.90074C22.6498 3.90074 24.1258 3.38456 25.5529 2.88427C27.051 2.36015 28.6011 1.81856 30.4902 1.81856C34.4988 1.81856 39.1586 8.95133 39.1586 18.1472C39.1586 22.6213 38.3543 24.8893 36.7664 24.8893Z" fill="currentColor" />
        <path d="M30.0424 5.54297C29.0852 5.54297 28.3093 6.32438 28.3093 7.28844C28.3093 8.2525 29.0852 9.03391 30.0424 9.03391C30.9996 9.03391 31.7754 8.2525 31.7754 7.28844C31.7754 6.32438 30.9996 5.54297 30.0424 5.54297Z" fill="currentColor" />
        <path d="M30.0424 12.7504C29.0852 12.7504 28.3093 13.5318 28.3093 14.4958C28.3093 15.4599 29.0852 16.2413 30.0424 16.2413C30.9996 16.2413 31.7754 15.4599 31.7754 14.4958C31.7754 13.5318 30.9996 12.7504 30.0424 12.7504Z" fill="currentColor" />
        <path d="M33.6204 9.14661C32.6632 9.14661 31.8874 9.92802 31.8874 10.8921C31.8874 11.8561 32.6632 12.6375 33.6204 12.6375C34.5776 12.6375 35.3535 11.8561 35.3535 10.8921C35.3535 9.92802 34.5776 9.14661 33.6204 9.14661Z" fill="currentColor" />
        <path d="M26.4644 9.14661C25.5072 9.14661 24.7313 9.92802 24.7313 10.8921C24.7313 11.8561 25.5072 12.6375 26.4644 12.6375C27.4216 12.6375 28.1974 11.8561 28.1974 10.8921C28.1974 9.92802 27.4216 9.14661 26.4644 9.14661Z" fill="currentColor" />
        <path d="M15.1846 8.8465H14.7746C14.311 8.8465 13.9341 8.4685 13.9341 7.99997V7.58703C13.9341 6.45779 13.0258 5.54138 11.903 5.54138C10.7803 5.54138 9.87197 6.45621 9.87197 7.58703V7.99997C9.87197 8.46691 9.49666 8.8465 9.03147 8.8465H8.62147C7.50028 8.8465 6.59039 9.76132 6.59039 10.8921C6.59039 12.023 7.4987 12.9378 8.62147 12.9378H9.03147C9.49509 12.9378 9.87197 13.3158 9.87197 13.7843V14.1973C9.87197 15.3265 10.7803 16.2429 11.903 16.2429C13.0258 16.2429 13.9341 15.3281 13.9341 14.1973V13.7843C13.9341 13.3174 14.3094 12.9378 14.7746 12.9378H15.1846C16.3058 12.9378 17.2157 12.0214 17.2157 10.8921C17.2157 9.76291 16.3074 8.8465 15.1846 8.8465Z" fill="currentColor" />
    </symbol>
    <symbol viewBox="0 0 43 32" fill="none" id="TV">
        <g clip-path="url(#clip0_56_2596)">
        <g clip-path="url(#clip1_56_2596)">
        <path d="M40.5666 0.20743H1.6477C1.18728 0.20743 0.813721 0.591362 0.813721 1.06457V25.5691C0.813721 26.0424 1.18728 26.4263 1.6477 26.4263H20.2732V27.799L8.54747 30.0937C8.09573 30.1829 7.79817 30.6316 7.88507 31.0959C7.97197 31.5602 8.40848 31.866 8.86021 31.7767L21.1069 29.3794L33.3536 31.7767C33.4057 31.7878 33.46 31.7923 33.5099 31.7923C33.903 31.7923 34.2527 31.5066 34.3287 31.0958C34.4156 30.6316 34.1181 30.1829 33.6663 30.0936L21.9406 27.799V26.4262H40.5661C41.0265 26.4262 41.4001 26.0423 41.4001 25.5691V1.06454C41.4001 0.589095 41.027 0.20743 40.5666 0.20743ZM39.7326 1.92172V21.7074L2.48167 21.7052V1.92177L39.7326 1.92172ZM2.48167 24.7097V23.4195H39.7326V24.7097H2.48167Z" fill="currentColor"/>
        </g>
        </g>
        <defs>
        <clipPath id="clip0_56_2596">
        <rect width="42" height="32" fill="white" transform="translate(0.375)"/>
        </clipPath>
        <clipPath id="clip1_56_2596">
        <rect width="41.1429" height="32" fill="white" transform="translate(0.535767)"/>
        </clipPath>
        </defs>
    </symbol>
    <symbol viewBox="0 0 29 28" fill="none" id="accessories">
        <g clip-path="url(#clip0_56_2584)">
            <path d="M19.75 22.75H26.75V15.75H19.75V22.75Z" stroke="currentColor" stroke-miterlimit="10" stroke-linecap="round" stroke-linejoin="round" />
            <path d="M20.9167 27.4167H25.5834V22.7501H20.9167V27.4167Z" stroke="currentColor" stroke-miterlimit="10" stroke-linecap="round" stroke-linejoin="round" />
            <path d="M23.2501 15.75V8.75C23.2501 6.81683 21.6832 5.25 19.7501 5.25C17.8169 5.25 16.2501 6.81683 16.2501 8.75V22.75C16.2501 25.3272 14.1606 27.4167 11.5834 27.4167C9.00625 27.4167 6.91675 25.3272 6.91675 22.75V14.5833" stroke="currentColor" stroke-miterlimit="10" stroke-linecap="round" stroke-linejoin="round" />
            <path d="M6.91671 12.25C10.1384 12.25 12.75 9.63837 12.75 6.41671C12.75 3.19505 10.1384 0.583374 6.91671 0.583374C3.69505 0.583374 1.08337 3.19505 1.08337 6.41671C1.08337 9.63837 3.69505 12.25 6.91671 12.25Z" stroke="currentColor" stroke-miterlimit="10" stroke-linecap="round" stroke-linejoin="round" />
            <path d="M6.91675 9.91675C8.84974 9.91675 10.4167 8.34974 10.4167 6.41675C10.4167 4.48375 8.84974 2.91675 6.91675 2.91675C4.98375 2.91675 3.41675 4.48375 3.41675 6.41675C3.41675 8.34974 4.98375 9.91675 6.91675 9.91675Z" stroke="currentColor" stroke-miterlimit="10" stroke-linecap="round" stroke-linejoin="round" />
            <path d="M5.75 12.25V14.5833H8.08333V12.25" stroke="currentColor" stroke-miterlimit="10" stroke-linecap="round" stroke-linejoin="round" />
        </g>
        <defs>
            <clipPath id="clip0_56_2584">
            <rect width="28" height="28" fill="white" transform="translate(0.5)" />
            </clipPath>
        </defs>
    </symbol>
    <symbol viewBox="0 0 36 32" fill="none" id="category-home">
        <path d="M24.2047 3.97671C24.2047 3.58818 24.5533 3.26993 24.9789 3.26993H29.627C30.0526 3.26993 30.4012 3.58818 30.4012 3.97671V8.22008C30.4012 8.6086 30.0526 8.92686 29.627 8.92686C29.2014 8.92686 28.8528 8.6086 28.8528 8.22008V4.68348H24.9789C24.5533 4.68348 24.2047 4.36523 24.2047 3.97671ZM34.8255 15.4976L18.5569 0.645829C18.2548 0.37001 17.7668 0.37001 17.4646 0.645829L1.18747 15.4976C0.885344 15.7735 0.885344 16.219 1.18747 16.4948C1.48961 16.7706 1.97766 16.7706 2.27979 16.4948L18.0066 2.14544L33.7248 16.4948C33.8803 16.6367 34.0735 16.7004 34.2754 16.7004C34.4773 16.7004 34.6705 16.6301 34.8259 16.4948C35.128 16.219 35.1277 15.7735 34.8255 15.4976ZM31.1767 16.0002C30.7511 16.0002 30.4025 16.3185 30.4025 16.707V30.1439H22.6561V23.0721C22.6561 20.7316 20.5716 18.8287 18.0079 18.8287C15.4442 18.8287 13.3597 20.7316 13.3597 23.0721V30.1439H5.61328V16.707C5.61328 16.3185 5.26466 16.0002 4.83908 16.0002C4.41349 16.0002 4.06488 16.3185 4.06488 16.707V30.852C4.06488 31.2406 4.41349 31.5588 4.83908 31.5588H14.1354C14.561 31.5588 14.9096 31.2406 14.9096 30.852V23.0721C14.9096 21.5086 16.2968 20.2436 18.0079 20.2436C19.7205 20.2436 21.1062 21.51 21.1062 23.0721V30.852C21.1062 31.2406 21.4548 31.5588 21.8804 31.5588H31.1767C31.6023 31.5588 31.9509 31.2406 31.9509 30.852V16.707C31.9509 16.3185 31.6023 16.0002 31.1767 16.0002Z" fill="currentColor" />
    </symbol>
    <symbol viewBox="0 0 16 17" fill="none" id="nav-arrow">
        <path fill-rule="evenodd" clip-rule="evenodd" d="M15.0202 1.47971C15.1696 1.62913 15.209 1.85634 15.1185 2.04731L9.11853 14.714C9.02813 14.9048 8.82755 15.0183 8.6174 14.9975C8.40724 14.9767 8.23281 14.8261 8.18159 14.6212L6.92102 9.57891L1.87873 8.31834C1.67385 8.26712 1.52324 8.09269 1.50243 7.88254C1.48162 7.67238 1.5951 7.4718 1.78595 7.3814L14.4526 1.3814C14.6436 1.29094 14.8708 1.3303 15.0202 1.47971ZM3.47667 7.68705L7.4546 8.68153C7.63374 8.72631 7.77362 8.86619 7.8184 9.04533L8.81288 13.0233L13.6155 2.88446L3.47667 7.68705Z" fill="currentColor" />
    </symbol>
    <symbol viewBox="0 0 20 20" fill="none" id="footer-cart">
        <path d="M14.7474 3.83498C14.5492 3.83498 14.3591 3.91597 14.2189 4.06013C14.0787 4.20429 14 4.39982 14 4.60369C14 4.80756 14.0787 5.00309 14.2189 5.14725C14.3591 5.29141 14.5492 5.37239 14.7474 5.37239C14.9774 5.37239 15.2052 5.419 15.4178 5.50955C15.6303 5.6001 15.8235 5.73283 15.9861 5.90014C16.1488 6.06746 16.2779 6.26609 16.3659 6.4847C16.4539 6.70331 16.4993 6.93762 16.4993 7.17424V15.6607C16.4993 16.1386 16.3147 16.5969 15.9861 16.9348C15.6576 17.2728 15.212 17.4626 14.7474 17.4626H5.25262C4.78799 17.4626 4.3424 17.2728 4.01386 16.9348C3.68532 16.5969 3.50075 16.1386 3.50075 15.6607V7.16809C3.50075 6.69021 3.68532 6.2319 4.01386 5.89399C4.3424 5.55608 4.78799 5.36624 5.25262 5.36624C5.45083 5.36624 5.64093 5.28526 5.7811 5.1411C5.92126 4.99694 6 4.80141 6 4.59754C6 4.39367 5.92126 4.19814 5.7811 4.05398C5.64093 3.90982 5.45083 3.82883 5.25262 3.82883C4.391 3.82883 3.56459 4.18045 2.95478 4.80651C2.34497 5.43256 2.00158 6.2819 2 7.16809V15.6546C2.00158 16.5414 2.34477 17.3913 2.95441 18.0184C3.56406 18.6454 4.39045 18.9984 5.25262 19H14.7474C15.6095 18.9984 16.4359 18.6454 17.0456 18.0184C17.6552 17.3913 17.9984 16.5414 18 15.6546V7.16809C17.9968 6.28297 17.6528 5.43521 17.0431 4.81048C16.4335 4.18575 15.608 3.83498 14.7474 3.83498ZM9.26457 3.83498C9.06636 3.83498 8.87626 3.91597 8.73609 4.06013C8.59593 4.20429 8.51719 4.39982 8.51719 4.60369C8.51719 4.80756 8.59593 5.00309 8.73609 5.14725C8.87626 5.29141 9.06636 5.37239 9.26457 5.37239H10.7354C10.9336 5.37239 11.1237 5.29141 11.2639 5.14725C11.4041 5.00309 11.4828 4.80756 11.4828 4.60369C11.4828 4.39982 11.4041 4.20429 11.2639 4.06013C11.1237 3.91597 10.9336 3.83498 10.7354 3.83498H9.26457ZM7.01046 6.69457C7.10912 6.69457 7.20679 6.67449 7.29786 6.63547C7.38893 6.59646 7.47159 6.53928 7.54107 6.46725C7.61055 6.39522 7.66548 6.30975 7.70268 6.21577C7.73989 6.1218 7.75864 6.02118 7.75785 5.91971C7.75785 4.07482 8.78625 2.51281 10.006 2.51281C11.2257 2.51281 12.2541 4.07482 12.2541 5.91971C12.2448 6.02685 12.2573 6.13482 12.2908 6.23672C12.3242 6.33863 12.378 6.43225 12.4486 6.51163C12.5192 6.591 12.605 6.65439 12.7008 6.69776C12.7965 6.74113 12.8999 6.76353 13.0045 6.76353C13.1091 6.76353 13.2125 6.74113 13.3082 6.69776C13.4039 6.65439 13.4898 6.591 13.5604 6.51163C13.631 6.43225 13.6847 6.33863 13.7182 6.23672C13.7517 6.13482 13.7642 6.02685 13.7549 5.91971C13.7549 3.19542 12.0747 1 10.006 1C7.93722 1 6.25112 3.22002 6.25112 5.91971C6.25031 6.02222 6.26944 6.12386 6.30739 6.21865C6.34534 6.31344 6.40134 6.39946 6.47209 6.47166C6.54285 6.54386 6.62693 6.60078 6.71938 6.63906C6.81184 6.67734 6.91081 6.69621 7.01046 6.69457Z" fill="currentColor"/>
    </symbol>
    <symbol viewBox="0 0 20 19" fill="none" id="footer-heart">
        <path fill-rule="evenodd" clip-rule="evenodd" d="M5.89878 2.24989C3.7397 2.24989 2.04759 4.07216 2.04759 6.39732C2.04759 7.29542 2.35396 8.25746 2.90021 9.24803C3.44469 10.2354 4.20382 11.2079 5.04828 12.1123C6.73855 13.9225 8.70161 15.3866 9.75162 16.0731C9.7779 16.0903 9.80313 16.1093 9.82713 16.13C9.93176 16.2201 10.1259 16.269 10.3731 16.0938C11.3792 15.3436 13.3218 13.8786 15.0111 12.0795C15.857 11.1787 16.6209 10.2133 17.1698 9.23213C17.7204 8.24789 18.0297 7.29258 18.0297 6.39732C18.0297 4.14698 16.2524 2.24989 14.2559 2.24989C12.6746 2.24989 11.3076 3.2442 10.7287 4.62965C10.6155 4.90052 10.3677 5.077 10.0919 5.08306C9.81617 5.08912 9.56182 4.92367 9.43848 4.658C8.77453 3.22796 7.46134 2.24989 5.89878 2.24989ZM0.619019 6.39732C0.619019 3.22249 2.95072 0.711426 5.89878 0.711426C7.60823 0.711426 9.08436 1.56681 10.0621 2.87282C11.0307 1.55321 12.5648 0.711426 14.2559 0.711426C17.0571 0.711426 19.4583 3.31433 19.4583 6.39732C19.4583 7.66873 19.0229 8.90092 18.3934 10.0261C17.7623 11.1543 16.9108 12.2201 16.0156 13.1734C14.2262 15.0791 12.1878 16.612 11.1804 17.3631L11.17 17.3707C10.5043 17.8486 9.63875 17.9052 8.97516 17.3652C7.85083 16.6261 5.81423 15.1023 4.04095 13.2032C3.14433 12.243 2.29781 11.1686 1.67191 10.0336C1.04777 8.90177 0.619019 7.66589 0.619019 6.39732Z" fill="currentColor"/>
    </symbol>
    <svg viewBox="0 0 20 20" fill="none" id="footer-compare">
        <path d="M2.5 5.83325H3.9832C5.29586 5.83325 5.95218 5.83325 6.5214 6.00642C7.40869 6.27635 8.17462 6.84622 8.68813 7.61853C9.01755 8.11398 9.20615 8.74263 9.58333 9.99992V9.99992C9.96052 11.2572 10.1491 11.8859 10.4785 12.3813C10.992 13.1536 11.758 13.7235 12.6453 13.9934C13.2145 14.1666 13.8708 14.1666 15.1835 14.1666H17.5M17.5 14.1666L15 11.6666M17.5 14.1666L15 16.6666" stroke="currentColor" stroke-width="2"/>
        <path fill-rule="evenodd" clip-rule="evenodd" d="M18.2071 5.12622L15.7071 2.62622L14.2929 4.04043L15.0858 4.83331L15.025 4.83329C13.8658 4.83286 13.0682 4.83257 12.3542 5.04978C11.7086 5.24621 11.1143 5.56969 10.6038 5.99619C10.6608 6.0742 10.7162 6.15362 10.77 6.23441C11.0994 6.72994 11.3364 7.28542 11.5393 7.87204C11.9081 7.44517 12.3918 7.12887 12.9363 6.9632C13.3192 6.84671 13.7812 6.83389 15.0858 6.83335L14.2929 7.62622L15.7071 9.04043L18.2071 6.54043L18.9142 5.83333L18.2071 5.12622ZM8.56289 14.0038C8.50584 13.9258 8.45043 13.8464 8.39671 13.7656C8.06724 13.2701 7.83025 12.7146 7.62732 12.1279C7.25852 12.5548 6.77492 12.8711 6.23035 13.0368C5.83802 13.1561 5.36269 13.1667 3.9832 13.1667H2.5V15.1667H3.9832L4.1417 15.1667C5.30087 15.1671 6.09843 15.1674 6.81244 14.9502C7.45811 14.7538 8.05237 14.4303 8.56289 14.0038Z" fill="currentColor"/>
    </svg>
    <symbol viewBox="0 0 20 20" fill="none" id="footer-person">
        <path d="M14.8375 10.1125C14.7793 10.0546 14.7102 10.0088 14.6342 9.97767C14.5582 9.94651 14.4768 9.93062 14.3947 9.93091C14.3126 9.9312 14.2313 9.94766 14.1556 9.97936C14.0798 10.0111 14.011 10.0574 13.9532 10.1156C13.8953 10.1739 13.8495 10.243 13.8183 10.319C13.7872 10.395 13.7713 10.4763 13.7716 10.5585C13.7719 10.6406 13.7883 10.7219 13.82 10.7976C13.8517 10.8734 13.898 10.9421 13.9563 11C14.4851 11.5233 14.9049 12.1462 15.1914 12.8328C15.4778 13.5194 15.6252 14.256 15.625 15C15.625 15.7625 13.4313 16.875 10 16.875C6.56879 16.875 4.37504 15.7625 4.37504 15C4.37405 14.261 4.51871 13.5289 4.80075 12.8458C5.08279 12.1627 5.49669 11.5418 6.01879 11.0188C6.1352 10.9017 6.20053 10.7432 6.20053 10.5781C6.20053 10.413 6.1352 10.2546 6.01879 10.1375C5.90169 10.0211 5.74328 9.95576 5.57816 9.95576C5.41305 9.95576 5.25464 10.0211 5.13754 10.1375C4.49698 10.7745 3.98925 11.5323 3.64378 12.367C3.29832 13.2017 3.122 14.0967 3.12504 15C3.12504 17.0313 6.66879 18.125 10 18.125C13.3313 18.125 16.875 17.0313 16.875 15C16.8774 14.0908 16.6985 13.1902 16.3486 12.351C15.9988 11.5118 15.4851 10.7508 14.8375 10.1125Z" fill="currentColor" />
        <path d="M10 10.625C10.8653 10.625 11.7112 10.3684 12.4306 9.88768C13.1501 9.40695 13.7108 8.72367 14.042 7.92424C14.3731 7.12482 14.4597 6.24515 14.2909 5.39648C14.1221 4.54781 13.7054 3.76826 13.0936 3.15641C12.4817 2.54456 11.7022 2.12788 10.8535 1.95907C10.0049 1.79026 9.12519 1.8769 8.32576 2.20803C7.52633 2.53916 6.84305 3.09992 6.36232 3.81938C5.88159 4.53885 5.625 5.38471 5.625 6.25C5.625 7.41032 6.08594 8.52312 6.90641 9.34359C7.72688 10.1641 8.83968 10.625 10 10.625ZM10 3.125C10.6181 3.125 11.2223 3.30828 11.7362 3.65166C12.2501 3.99504 12.6506 4.4831 12.8871 5.05412C13.1236 5.62514 13.1855 6.25347 13.065 6.85966C12.9444 7.46585 12.6467 8.02267 12.2097 8.45971C11.7727 8.89675 11.2158 9.19438 10.6097 9.31496C10.0035 9.43553 9.37513 9.37365 8.80411 9.13713C8.2331 8.9006 7.74504 8.50006 7.40166 7.98616C7.05828 7.47226 6.875 6.86807 6.875 6.25C6.875 5.4212 7.20424 4.62634 7.79029 4.04029C8.37634 3.45424 9.1712 3.125 10 3.125Z" fill="currentColor" />
    </symbol>
    <symbol viewBox="0 0 10 18" fill="none" id="arrow-right">
        <path d="M-0.00579908 16.9991C-0.00656011 16.8675 0.0186646 16.737 0.0684292 16.6152C0.118194 16.4933 0.191521 16.3825 0.284202 16.2891L7.5842 8.99909L0.284203 1.70909C0.0958986 1.52078 -0.00988966 1.26539 -0.00988965 0.999086C-0.00988963 0.732785 0.0958986 0.47739 0.284203 0.289086C0.472507 0.100783 0.7279 -0.00500529 0.994202 -0.00500528C1.2605 -0.00500526 1.5159 0.100783 1.7042 0.289086L9.7042 8.28909C9.79793 8.38205 9.87232 8.49265 9.92309 8.61451C9.97386 8.73637 10 8.86707 10 8.99909C10 9.1311 9.97386 9.2618 9.92309 9.38366C9.87232 9.50552 9.79793 9.61612 9.7042 9.70909L1.7042 17.7091C1.61124 17.8028 1.50064 17.8772 1.37878 17.928C1.25692 17.9787 1.12621 18.0049 0.994201 18.0049C0.862189 18.0049 0.731484 17.9787 0.609624 17.928C0.487765 17.8772 0.377165 17.8028 0.284202 17.7091C0.191521 17.6156 0.118194 17.5048 0.0684292 17.383C0.0186646 17.2612 -0.00656012 17.1307 -0.00579908 16.9991Z" fill="currentColor" />
    </symbol>
    <symbol viewBox="0 0 18 20" fill="none" id="cart-sales">
        <path d="M14.3408 3.14998C14.1178 3.14998 13.9039 3.23997 13.7463 3.40015C13.5886 3.56033 13.5 3.77757 13.5 4.0041C13.5 4.23063 13.5886 4.44787 13.7463 4.60805C13.9039 4.76823 14.1178 4.85822 14.3408 4.85822C14.5996 4.85822 14.8559 4.91 15.095 5.01061C15.3341 5.11123 15.5514 5.2587 15.7344 5.4446C15.9174 5.63051 16.0626 5.85121 16.1616 6.09411C16.2607 6.33701 16.3117 6.59735 16.3117 6.86027V16.2897C16.3117 16.8207 16.104 17.3299 15.7344 17.7054C15.3648 18.0808 14.8635 18.2918 14.3408 18.2918H3.65919C3.13649 18.2918 2.6352 18.0808 2.26559 17.7054C1.89598 17.3299 1.68834 16.8207 1.68834 16.2897V6.85343C1.68834 6.32246 1.89598 5.81323 2.26559 5.43777C2.6352 5.06231 3.13649 4.85138 3.65919 4.85138C3.88219 4.85138 4.09605 4.7614 4.25373 4.60122C4.41142 4.44104 4.5 4.22379 4.5 3.99727C4.5 3.77074 4.41142 3.55349 4.25373 3.39331C4.09605 3.23314 3.88219 3.14315 3.65919 3.14315C2.68988 3.14315 1.76017 3.53383 1.07413 4.22945C0.388089 4.92507 0.00178183 5.86878 0 6.85343V16.2829C0.00177806 17.2682 0.38787 18.2126 1.07372 18.9093C1.75956 19.606 2.68926 19.9982 3.65919 20H14.3408C15.3107 19.9982 16.2404 19.606 16.9263 18.9093C17.6121 18.2126 17.9982 17.2682 18 16.2829V6.85343C17.9964 5.86996 17.6093 4.92801 16.9235 4.23386C16.2377 3.53972 15.309 3.14998 14.3408 3.14998ZM8.17265 3.14998C7.94965 3.14998 7.73579 3.23997 7.5781 3.40015C7.42042 3.56033 7.33184 3.77757 7.33184 4.0041C7.33184 4.23063 7.42042 4.44787 7.5781 4.60805C7.73579 4.76823 7.94965 4.85822 8.17265 4.85822H9.82735C10.0503 4.85822 10.2642 4.76823 10.4219 4.60805C10.5796 4.44787 10.6682 4.23063 10.6682 4.0041C10.6682 3.77757 10.5796 3.56033 10.4219 3.40015C10.2642 3.23997 10.0503 3.14998 9.82735 3.14998H8.17265ZM5.63677 6.3273C5.74776 6.3273 5.85764 6.30498 5.96009 6.26163C6.06255 6.21828 6.15554 6.15476 6.2337 6.07472C6.31187 5.99468 6.37366 5.89972 6.41552 5.7953C6.45737 5.69089 6.47847 5.57908 6.47758 5.46635C6.47758 3.41647 7.63453 1.6809 9.00673 1.6809C10.3789 1.6809 11.5359 3.41647 11.5359 5.46635C11.5254 5.58539 11.5394 5.70535 11.5771 5.81858C11.6148 5.93181 11.6752 6.03584 11.7546 6.12403C11.8341 6.21223 11.9307 6.28266 12.0383 6.33085C12.146 6.37903 12.2624 6.40392 12.38 6.40392C12.4977 6.40392 12.6141 6.37903 12.7217 6.33085C12.8294 6.28266 12.926 6.21223 13.0054 6.12403C13.0848 6.03584 13.1453 5.93181 13.183 5.81858C13.2206 5.70535 13.2347 5.58539 13.2242 5.46635C13.2242 2.43936 11.3341 0 9.00673 0C6.67937 0 4.78251 2.46669 4.78251 5.46635C4.7816 5.58024 4.80312 5.69318 4.84582 5.7985C4.88851 5.90382 4.95151 5.9994 5.0311 6.07962C5.1107 6.15985 5.20529 6.22308 5.30931 6.26562C5.41332 6.30815 5.52466 6.32912 5.63677 6.3273Z" fill="currentColor" />
    </symbol>
    <symbol viewBox="0 0 14 8" fill="none" id="arrow-bottom">
        <path fill-rule="evenodd" clip-rule="evenodd" d="M7.78033 7.53033C7.48744 7.82322 7.01256 7.82322 6.71967 7.53033L0.719671 1.53033C0.426777 1.23744 0.426777 0.762562 0.719671 0.469669C1.01256 0.176776 1.48744 0.176776 1.78033 0.469669L7.25 5.93934L12.7197 0.46967C13.0126 0.176777 13.4874 0.176777 13.7803 0.46967C14.0732 0.762563 14.0732 1.23744 13.7803 1.53033L7.78033 7.53033Z" fill="currentColor" />
    </symbol>
    <symbol viewBox="0 0 10 10" fill="none" id="closest">
        <path d="M6.00244 5.00056L9.88775 1.112C9.92329 1.07656 9.9515 1.03444 9.97074 0.988071C9.98999 0.941697 9.99989 0.891976 9.99989 0.841761C9.99989 0.791546 9.98999 0.741825 9.97074 0.695451C9.9515 0.649077 9.92329 0.606962 9.88775 0.571523L9.42538 0.10877C9.35268 0.0391888 9.25596 0.000355056 9.15537 0.000355056C9.05478 0.000355056 8.95806 0.0391888 8.88536 0.10877L5.00005 3.99733L1.11475 0.10877C1.0422 0.0390276 0.945568 -2.04444e-05 0.844975 -0.000243182C0.744381 -0.000465921 0.647579 0.0381538 0.574723 0.107574L0.111163 0.570327C0.0396645 0.642059 -0.000488281 0.739244 -0.000488281 0.840565C-0.000488281 0.941886 0.0396645 1.03907 0.111163 1.1108L3.99766 5.00056L0.112358 8.88911C0.0768118 8.92455 0.0486074 8.96667 0.0293625 9.01304C0.0101176 9.05941 0.000210985 9.10913 0.000210985 9.15935C0.000210985 9.20957 0.0101176 9.25929 0.0293625 9.30566C0.0486074 9.35203 0.0768118 9.39415 0.112358 9.42959L0.574723 9.89234C0.647425 9.96192 0.744142 10.0008 0.844735 10.0008C0.945329 10.0008 1.04205 9.96192 1.11475 9.89234L5.00005 6.00378L8.88536 9.89234C8.95806 9.96192 9.05478 10.0008 9.15537 10.0008C9.25596 10.0008 9.35268 9.96192 9.42538 9.89234L9.88775 9.42959C9.95924 9.35786 9.9994 9.26067 9.9994 9.15935C9.9994 9.05803 9.95924 8.96084 9.88775 8.88911L6.00244 5.00056Z" fill="black" />
    </symbol>
    <symbol viewBox="0 0 13 11" fill="none" id="access">
        <path d="M4.87504 7.16659L1.625 3.8333L0 5.49995L4.87504 10.5L13 2.16666L11.375 0.5L4.87504 7.16659Z" fill="currentColor" />
    </symbol>
    <symbol viewBox="0 0 18 17" fill="none" id="star">
        <path d="M9 0L11.0206 6.21885H17.5595L12.2694 10.0623L14.2901 16.2812L9 12.4377L3.70993 16.2812L5.73056 10.0623L0.440492 6.21885H6.97937L9 0Z" fill="#FAB511" />
    </symbol>
    <symbol viewBox="0 0 18 17" fill="none" id="star-half">
        <path d="M9 0L11.0206 6.21885H17.5595L12.2694 10.0623L14.2901 16.2812L9 12.4377L3.70993 16.2812L5.73056 10.0623L0.440492 6.21885H6.97937L9 0Z" fill="#808080" />
    </symbol>
    <symbol viewBox="0 0 22 3" fill="none" id="minus">
        <path d="M2.22746 2.98242C1.01499 2.98242 0.0322266 2.32119 0.0322266 1.50541C0.0322266 0.689806 1.01499 0.0283995 2.22746 0.0283995H19.7883C21.0007 0.0283995 21.9835 0.68963 21.9835 1.50541C21.9835 2.32119 21.0007 2.98242 19.7883 2.98242H2.22746Z" fill="currentColor" />
    </symbol>
    <symbol viewBox="0 0 18 18" fill="none" id="plus">
        <path d="M16.5656 7.5H10.5V1.43437C10.5 0.642187 9.82969 0 9 0C8.17031 0 7.5 0.642187 7.5 1.43437V7.5H1.43437C0.642187 7.5 0 8.17031 0 9C0 9.82969 0.642187 10.5 1.43437 10.5H7.5V16.5656C7.5 17.3578 8.17031 18 9 18C9.82969 18 10.5 17.3578 10.5 16.5656V10.5H16.5656C17.3578 10.5 18 9.82969 18 9C18 8.17031 17.3578 7.5 16.5656 7.5Z" fill="currentColor" />
    </symbol>
    <symbol viewBox="0 0 16 17" fill="none" id="contact-phone">
        <path d="M15.8569 12.8393C15.8569 13.0402 15.8197 13.3025 15.7453 13.6261C15.6709 13.9498 15.5927 14.2046 15.5109 14.3906C15.3546 14.7627 14.9008 15.157 14.1493 15.5737C13.4499 15.9531 12.7579 16.1429 12.0734 16.1429C11.8725 16.1429 11.6772 16.1299 11.4874 16.1038C11.2977 16.0778 11.0838 16.0313 10.8457 15.9643C10.6076 15.8973 10.4309 15.8434 10.3156 15.8025C10.2002 15.7616 9.99377 15.6853 9.69615 15.5737C9.39853 15.4621 9.21624 15.3951 9.14927 15.3728C8.42011 15.1124 7.76907 14.8036 7.19615 14.4464C6.24377 13.8586 5.25977 13.0569 4.24414 12.0413C3.22852 11.0257 2.4268 10.0417 1.83901 9.0893C1.48186 8.51639 1.17308 7.86535 0.912667 7.13618C0.890346 7.06921 0.823382 6.88692 0.711775 6.5893C0.600167 6.29168 0.523903 6.08521 0.48298 5.96988C0.442057 5.85456 0.388114 5.67785 0.32115 5.43975C0.254185 5.20165 0.207682 4.98774 0.181641 4.79801C0.155599 4.60828 0.142578 4.41296 0.142578 4.21207C0.142578 3.52755 0.33231 2.83558 0.711775 2.13618C1.12844 1.38469 1.52279 0.930821 1.89481 0.774571C2.08082 0.692726 2.33566 0.614601 2.65932 0.540196C2.98298 0.465791 3.24526 0.428589 3.44615 0.428589C3.55032 0.428589 3.62844 0.43975 3.68052 0.462071C3.81445 0.506714 4.01163 0.789452 4.27204 1.31029C4.35389 1.45165 4.4655 1.65255 4.60686 1.91296C4.74823 2.17338 4.87844 2.40962 4.99749 2.62167C5.11654 2.83372 5.23186 3.03276 5.34347 3.21877C5.36579 3.24853 5.4309 3.34154 5.53878 3.49779C5.64667 3.65404 5.72666 3.7861 5.77874 3.89399C5.83082 4.00188 5.85686 4.1079 5.85686 4.21207C5.85686 4.36088 5.75084 4.54689 5.53878 4.77011C5.32673 4.99332 5.09608 5.19793 4.84682 5.38395C4.59756 5.56996 4.36691 5.76713 4.15485 5.97546C3.9428 6.1838 3.83677 6.35493 3.83677 6.48886C3.83677 6.55582 3.85538 6.63953 3.89258 6.73997C3.92978 6.84042 3.9614 6.91668 3.98744 6.96877C4.01349 7.02085 4.06557 7.11014 4.14369 7.23662C4.22182 7.36311 4.2646 7.4338 4.27204 7.44868C4.83752 8.46802 5.48484 9.34228 6.21401 10.0714C6.94317 10.8006 7.81743 11.4479 8.83677 12.0134C8.85166 12.0209 8.92234 12.0636 9.04883 12.1418C9.17532 12.2199 9.2646 12.272 9.31669 12.298C9.36877 12.3241 9.44503 12.3557 9.54548 12.3929C9.64593 12.4301 9.72963 12.4487 9.7966 12.4487C9.93052 12.4487 10.1017 12.3427 10.31 12.1306C10.5183 11.9185 10.7155 11.6879 10.9015 11.4386C11.0875 11.1894 11.2921 10.9587 11.5153 10.7467C11.7386 10.5346 11.9246 10.4286 12.0734 10.4286C12.1775 10.4286 12.2836 10.4546 12.3915 10.5067C12.4993 10.5588 12.6314 10.6388 12.7877 10.7467C12.9439 10.8546 13.0369 10.9197 13.0667 10.942C13.2527 11.0536 13.4517 11.1689 13.6638 11.288C13.8758 11.407 14.1121 11.5372 14.3725 11.6786C14.6329 11.82 14.8338 11.9316 14.9752 12.0134C15.496 12.2738 15.7787 12.471 15.8234 12.6049C15.8457 12.657 15.8569 12.7351 15.8569 12.8393Z" fill="currentColor" />
    </symbol>
    <symbol viewBox="0 0 21 20" fill="none" id="telegram">
        <g clip-path="url(#clip0_148_2044)">
            <path d="M8.34765 12.6509L8.01682 17.3042C8.49015 17.3042 8.69515 17.1009 8.94098 16.8567L11.1602 14.7359L15.7585 18.1034C16.6018 18.5734 17.196 18.3259 17.4235 17.3276L20.4418 3.18422L20.4427 3.18339C20.7102 1.93672 19.9918 1.44922 19.1702 1.75505L1.42848 8.54755C0.217648 9.01755 0.235981 9.69255 1.22265 9.99839L5.75848 11.4092L16.2943 4.81672C16.7901 4.48839 17.241 4.67005 16.8701 4.99839L8.34765 12.6509Z" fill="currentColor" />
        </g>
        <defs>
            <clipPath id="clip0_148_2044">
            <rect width="20" height="20" fill="white" transform="translate(0.5)" />
            </clipPath>
        </defs>
    </symbol>
    <symbol viewBox="0 0 21 20" fill="none" id="whatsapp">
        <g clip-path="url(#clip0_148_2049)">
            <path d="M10.0143 0.0115052C4.73232 0.263003 0.564101 4.66187 0.580124 9.94983C0.585003 11.5604 0.973825 13.0806 1.65973 14.4238L0.606623 19.5357C0.549656 19.8122 0.799049 20.0543 1.07374 19.9893L6.0828 18.8025C7.3697 19.4436 8.81517 19.8138 10.345 19.8372C15.7436 19.9196 20.2452 15.6329 20.4135 10.2362C20.5938 4.45136 15.8194 -0.264961 10.0143 0.0115052ZM15.9912 15.4111C14.5242 16.878 12.5738 17.6859 10.4993 17.6859C9.28454 17.6859 8.12156 17.4133 7.04253 16.8759L6.34496 16.5284L3.27389 17.256L3.92034 14.1179L3.57667 13.4449C3.01651 12.3479 2.73249 11.1616 2.73249 9.91912C2.73249 7.84453 3.54036 5.89415 5.00731 4.42716C6.46114 2.97332 8.44337 2.1523 10.4994 2.1523C12.574 2.15234 14.5243 2.96022 15.9912 4.42711C17.4582 5.89405 18.266 7.84443 18.2661 9.91897C18.266 11.9751 17.445 13.9573 15.9912 15.4111Z" fill="currentColor" />
            <path d="M15.3137 12.0702L13.3924 11.5185C13.1398 11.446 12.8677 11.5177 12.6837 11.7052L12.2138 12.1839C12.0157 12.3858 11.7151 12.4506 11.4529 12.3445C10.544 11.9767 8.63207 10.2768 8.14381 9.42648C8.00294 9.1812 8.02624 8.87455 8.1992 8.65075L8.6094 8.12006C8.77011 7.91213 8.80402 7.63289 8.69774 7.39254L7.88939 5.56428C7.69577 5.12638 7.13619 4.99891 6.77062 5.30809C6.23438 5.76163 5.59812 6.45083 5.52078 7.21437C5.38441 8.56053 5.96174 10.2575 8.14491 12.2951C10.6671 14.6491 12.6868 14.9601 14.0018 14.6416C14.7477 14.4609 15.3438 13.7367 15.72 13.1437C15.9764 12.7393 15.7739 12.2024 15.3137 12.0702Z" fill="currentColor" />
        </g>
        <defs>
            <clipPath id="clip0_148_2049">
            <rect width="20" height="20" fill="white" transform="translate(0.5)" />
            </clipPath>
        </defs>
    </symbol>
    <symbol viewBox="0 0 24 14" fill="none" id="vk">
        <path d="M19.5859 8.028C19.214 7.538 19.3204 7.32 19.5859 6.882C19.5907 6.877 22.6603 2.451 22.9766 0.95L22.9785 0.949C23.1357 0.402 22.9785 0 22.2185 0H19.7037C19.0636 0 18.7684 0.345 18.6103 0.731C18.6103 0.731 17.3299 3.929 15.5186 6.002C14.934 6.601 14.6637 6.793 14.3446 6.793C14.1874 6.793 13.943 6.601 13.943 6.054V0.949C13.943 0.293 13.7638 0 13.2338 0H9.2796C8.87804 0 8.63941 0.306 8.63941 0.591C8.63941 1.213 9.54506 1.356 9.63898 3.106V6.903C9.63898 7.735 9.49427 7.888 9.17322 7.888C8.31835 7.888 6.24349 4.677 5.01391 1.002C4.76569 0.289 4.52322 0.000999928 3.87824 0.000999928H1.36253C0.644713 0.000999928 0.5 0.346 0.5 0.732C0.5 1.414 1.35486 4.805 4.4753 9.285C6.55496 12.343 9.48373 14 12.148 14C13.7494 14 13.9449 13.632 13.9449 12.999C13.9449 10.077 13.8002 9.801 14.6024 9.801C14.9742 9.801 15.6144 9.993 17.1094 11.468C18.8182 13.217 19.099 14 20.0555 14H22.5702C23.2871 14 23.6503 13.632 23.4414 12.906C22.9632 11.379 19.7315 8.238 19.5859 8.028Z" fill="currentColor" />
    </symbol>
    <symbol viewBox="0 0 18 18" fill="none" id="navigation">
        <path d="M15.6655 2.50939C15.5139 2.35749 15.2853 2.31515 15.089 2.40023L1.97476 8.11944C1.77391 8.20698 1.64908 8.41106 1.66319 8.63017C1.67718 8.84876 1.82649 9.03562 2.03705 9.09713L7.48548 10.6892L9.07751 16.1377C9.13902 16.3487 9.32575 16.498 9.5446 16.5121C9.55574 16.5131 9.56675 16.5131 9.57788 16.5131C9.78404 16.5131 9.97207 16.3915 10.0553 16.2007L15.7749 3.08643C15.8605 2.88972 15.8173 2.66077 15.6655 2.50939Z" fill="currentColor" />
    </symbol>
    <symbol viewBox="0 0 22 16" fill="none" id="metro">
        <g clip-path="url(#clip0_148_2088)">
            <path d="M20.4864 13.7648L15.3472 0L11 8.04657L6.6704 0L1.5136 13.7648H0V15.851H7.7792V13.7648H6.6176L7.744 10.3376L11 16L14.256 10.3376L15.3824 13.7648H14.2208V15.851H22V13.7648H20.4864Z" fill="currentColor" />
        </g>
        <defs>
            <clipPath id="clip0_148_2088">
            <rect width="22" height="16" fill="white" />
            </clipPath>
        </defs>
    </symbol>
    <symbol viewBox="0 0 24 24" fill="none" id="people">
        <g clip-path="url(#clip0_148_2083)">
            <path d="M13.7488 4.5C14.991 4.5 15.9988 3.49219 15.9988 2.25C15.9988 1.00781 14.991 0 13.7488 0C12.5066 0 11.4988 1.00781 11.4988 2.25C11.4988 3.49219 12.5066 4.5 13.7488 4.5ZM18.1785 11.4891L17.0863 10.9359L16.6316 9.55781C15.9426 7.46719 14.0207 6.00469 11.841 6C10.1535 5.99531 9.2207 6.47344 7.46758 7.18125C6.45508 7.58906 5.62539 8.3625 5.13789 9.34687L4.82383 9.98438C4.4582 10.725 4.75352 11.625 5.48945 11.9953C6.2207 12.3656 7.11133 12.0656 7.48164 11.325L7.7957 10.6875C7.95977 10.3594 8.23164 10.1016 8.56914 9.96563L9.82539 9.45938L9.11289 12.3047C8.86914 13.2797 9.13164 14.3156 9.81133 15.0609L12.6191 18.1266C12.9566 18.4969 13.1957 18.9422 13.3176 19.425L14.1754 22.8609C14.377 23.6625 15.1926 24.1547 15.9941 23.9531C16.7957 23.7516 17.2879 22.9359 17.0863 22.1344L16.0457 17.9625C15.9238 17.4797 15.6848 17.0297 15.3473 16.6641L13.2145 14.3344L14.0207 11.1141L14.2785 11.8875C14.527 12.6422 15.0613 13.2656 15.7645 13.6219L16.8566 14.175C17.5879 14.5453 18.4785 14.2453 18.8488 13.5047C19.2098 12.7688 18.9145 11.8594 18.1785 11.4891ZM7.44883 18.0844C7.29883 18.4641 7.07383 18.8062 6.7832 19.0922L4.43945 21.4406C3.85352 22.0266 3.85352 22.9781 4.43945 23.5641C5.02539 24.15 5.97227 24.15 6.5582 23.5641L9.34258 20.7797C9.62852 20.4937 9.85352 20.1516 10.0082 19.7719L10.641 18.1875C8.04883 15.3609 8.82695 16.2281 8.41914 15.6703L7.44883 18.0844Z" fill="currentColor" />
        </g>
        <defs>
            <clipPath id="clip0_148_2083">
            <rect width="24" height="24" fill="white" />
            </clipPath>
        </defs>
    </symbol>
    <symbol viewBox="0 0 24 24" fill="none" id="parking">
        <g clip-path="url(#clip0_148_2107)">
            <path d="M15.0947 9.2095C15.0947 10.1999 14.7831 10.919 14.1601 11.3666C13.537 11.8143 12.5324 12.038 11.1464 12.038H9.7444V6.5333H11.5183C12.7453 6.5333 13.6482 6.7556 14.2268 7.1999C14.8053 7.6444 15.0947 8.3143 15.0947 9.2095ZM24 0V24H0V0H24ZM16.9162 9.1333C16.9162 6.4032 15.171 5.0381 11.6805 5.0381H7.9896V18.9619H9.7444V13.5429H11.3466C13.1141 13.5429 14.4843 13.1636 15.457 12.4049C16.43 11.6461 16.9162 10.5556 16.9162 9.1333Z" fill="currentColor" />
        </g>
        <defs>
            <clipPath id="clip0_148_2107">
            <rect width="24" height="24" fill="white" />
            </clipPath>
        </defs>
    </symbol>
    <symbol viewBox="0 0 20 20" fill="none" id="personal-information">
        <path d="M9.99935 10C11.8403 10 13.3327 8.50766 13.3327 6.66671C13.3327 4.82576 11.8403 3.33337 9.99935 3.33337C8.1584 3.33337 6.66602 4.82576 6.66602 6.66671C6.66602 8.50766 8.1584 10 9.99935 10Z" fill="currentColor" />
        <path d="M10.0007 11.1111C4.91732 11.1111 3.33398 14.8148 3.33398 14.8148V16.6666H16.6673V14.8148C16.6673 14.8148 15.084 11.1111 10.0007 11.1111Z" fill="currentColor" />
    </symbol>
</svg>